<svg width="91" height="21" viewBox="0 0 91 21" fill="none" xmlns="http://www.w3.org/2000/svg">
<path d="M0.43793 20V1.8H6.26193C7.2326 1.8 8.10793 2.03833 8.88793 2.515C9.66793 2.983 10.2876 3.62 10.7469 4.426C11.2149 5.22333 11.4489 6.12033 11.4489 7.117C11.4489 8.12233 11.2106 9.028 10.7339 9.834C10.2659 10.64 9.6376 11.277 8.84893 11.745C8.06893 12.213 7.2066 12.447 6.26193 12.447H2.25793V20H0.43793ZM2.25793 10.627H6.11893C6.76026 10.627 7.34526 10.471 7.87393 10.159C8.41126 9.83833 8.83593 9.40933 9.14793 8.872C9.4686 8.326 9.62893 7.71067 9.62893 7.026C9.62893 6.34133 9.4686 5.73033 9.14793 5.193C8.83593 4.647 8.41126 4.218 7.87393 3.906C7.34526 3.58533 6.76026 3.425 6.11893 3.425H2.25793V10.627ZM18.7009 20.338C17.5049 20.338 16.4129 20.0303 15.4249 19.415C14.4456 18.7997 13.6612 17.9763 13.0719 16.945C12.4912 15.905 12.2009 14.7567 12.2009 13.5C12.2009 12.5467 12.3699 11.6583 12.7079 10.835C13.0459 10.003 13.5096 9.275 14.0989 8.651C14.6969 8.01833 15.3902 7.52433 16.1789 7.169C16.9676 6.81367 17.8082 6.636 18.7009 6.636C19.8969 6.636 20.9846 6.94367 21.9639 7.559C22.9519 8.17433 23.7362 9.002 24.3169 10.042C24.9062 11.082 25.2009 12.2347 25.2009 13.5C25.2009 14.4447 25.0319 15.3287 24.6939 16.152C24.3559 16.9753 23.8879 17.7033 23.2899 18.336C22.7006 18.96 22.0116 19.4497 21.2229 19.805C20.4429 20.1603 19.6022 20.338 18.7009 20.338ZM18.7009 18.518C19.5849 18.518 20.3779 18.2883 21.0799 17.829C21.7906 17.361 22.3496 16.7457 22.7569 15.983C23.1729 15.2203 23.3809 14.3927 23.3809 13.5C23.3809 12.59 23.1729 11.7537 22.7569 10.991C22.3409 10.2197 21.7776 9.60433 21.0669 9.145C20.3649 8.68567 19.5762 8.456 18.7009 8.456C17.8169 8.456 17.0196 8.69 16.3089 9.158C15.6069 9.61733 15.0479 10.2283 14.6319 10.991C14.2246 11.7537 14.0209 12.59 14.0209 13.5C14.0209 14.436 14.2332 15.2853 14.6579 16.048C15.0826 16.802 15.6502 17.4043 16.3609 17.855C17.0716 18.297 17.8516 18.518 18.7009 18.518ZM27.4028 20V7H29.2228V8.794C29.6821 8.13533 30.2801 7.611 31.0168 7.221C31.7534 6.831 32.5551 6.636 33.4218 6.636C33.9244 6.636 34.4098 6.701 34.8778 6.831L34.1368 8.638C33.7728 8.52533 33.4174 8.469 33.0708 8.469C32.3688 8.469 31.7231 8.64233 31.1338 8.989C30.5531 9.33567 30.0894 9.79933 29.7428 10.38C29.3961 10.9607 29.2228 11.6063 29.2228 12.317V20H27.4028ZM43.3387 8.82H40.2317L40.2187 20H38.3987L38.4117 8.82H36.0587V7H38.4117L38.3987 2.918H40.2187L40.2317 7H43.3387V8.82ZM48.3496 3.607V7H52.2496V8.82H48.3496V20H46.5296V8.82H44.7486V7H46.5296V3.607C46.5296 2.97433 46.6813 2.40233 46.9846 1.891C47.2966 1.371 47.7126 0.959333 48.2326 0.656C48.7526 0.343999 49.329 0.187999 49.9616 0.187999C50.421 0.187999 50.863 0.278999 51.2876 0.461C51.721 0.642999 52.1066 0.911665 52.4446 1.267L51.1446 2.554C51.006 2.38067 50.8283 2.24633 50.6116 2.151C50.4036 2.05567 50.187 2.008 49.9616 2.008C49.5196 2.008 49.1383 2.164 48.8176 2.476C48.5056 2.788 48.3496 3.165 48.3496 3.607ZM59.7575 20.338C58.5615 20.338 57.4695 20.0303 56.4815 19.415C55.5022 18.7997 54.7179 17.9763 54.1285 16.945C53.5479 15.905 53.2575 14.7567 53.2575 13.5C53.2575 12.5467 53.4265 11.6583 53.7645 10.835C54.1025 10.003 54.5662 9.275 55.1555 8.651C55.7535 8.01833 56.4469 7.52433 57.2355 7.169C58.0242 6.81367 58.8649 6.636 59.7575 6.636C60.9535 6.636 62.0412 6.94367 63.0205 7.559C64.0085 8.17433 64.7929 9.002 65.3735 10.042C65.9629 11.082 66.2575 12.2347 66.2575 13.5C66.2575 14.4447 66.0885 15.3287 65.7505 16.152C65.4125 16.9753 64.9445 17.7033 64.3465 18.336C63.7572 18.96 63.0682 19.4497 62.2795 19.805C61.4995 20.1603 60.6589 20.338 59.7575 20.338ZM59.7575 18.518C60.6415 18.518 61.4345 18.2883 62.1365 17.829C62.8472 17.361 63.4062 16.7457 63.8135 15.983C64.2295 15.2203 64.4375 14.3927 64.4375 13.5C64.4375 12.59 64.2295 11.7537 63.8135 10.991C63.3975 10.2197 62.8342 9.60433 62.1235 9.145C61.4215 8.68567 60.6329 8.456 59.7575 8.456C58.8735 8.456 58.0762 8.69 57.3655 9.158C56.6635 9.61733 56.1045 10.2283 55.6885 10.991C55.2812 11.7537 55.0775 12.59 55.0775 13.5C55.0775 14.436 55.2899 15.2853 55.7145 16.048C56.1392 16.802 56.7069 17.4043 57.4175 17.855C58.1282 18.297 58.9082 18.518 59.7575 18.518ZM68.3579 20V0.499998H70.1779V20H68.3579ZM73.309 7H75.129V20H73.309V7ZM74.232 4.725C73.9374 4.725 73.686 4.62967 73.478 4.439C73.2787 4.23967 73.179 3.99267 73.179 3.698C73.179 3.40333 73.2787 3.16067 73.478 2.97C73.686 2.77067 73.9374 2.671 74.232 2.671C74.518 2.671 74.7607 2.77067 74.96 2.97C75.168 3.16067 75.272 3.40333 75.272 3.698C75.272 3.99267 75.1724 4.23967 74.973 4.439C74.7737 4.62967 74.5267 4.725 74.232 4.725ZM83.8532 20.338C82.6572 20.338 81.5652 20.0303 80.5772 19.415C79.5979 18.7997 78.8136 17.9763 78.2242 16.945C77.6436 15.905 77.3532 14.7567 77.3532 13.5C77.3532 12.5467 77.5222 11.6583 77.8602 10.835C78.1982 10.003 78.6619 9.275 79.2512 8.651C79.8492 8.01833 80.5426 7.52433 81.3312 7.169C82.1199 6.81367 82.9606 6.636 83.8532 6.636C85.0492 6.636 86.1369 6.94367 87.1162 7.559C88.1042 8.17433 88.8886 9.002 89.4692 10.042C90.0586 11.082 90.3532 12.2347 90.3532 13.5C90.3532 14.4447 90.1842 15.3287 89.8462 16.152C89.5082 16.9753 89.0402 17.7033 88.4422 18.336C87.8529 18.96 87.1639 19.4497 86.3752 19.805C85.5952 20.1603 84.7546 20.338 83.8532 20.338ZM83.8532 18.518C84.7372 18.518 85.5302 18.2883 86.2322 17.829C86.9429 17.361 87.5019 16.7457 87.9092 15.983C88.3252 15.2203 88.5332 14.3927 88.5332 13.5C88.5332 12.59 88.3252 11.7537 87.9092 10.991C87.4932 10.2197 86.9299 9.60433 86.2192 9.145C85.5172 8.68567 84.7286 8.456 83.8532 8.456C82.9692 8.456 82.1719 8.69 81.4612 9.158C80.7592 9.61733 80.2002 10.2283 79.7842 10.991C79.3769 11.7537 79.1732 12.59 79.1732 13.5C79.1732 14.436 79.3856 15.2853 79.8102 16.048C80.2349 16.802 80.8026 17.4043 81.5132 17.855C82.2239 18.297 83.0039 18.518 83.8532 18.518Z" fill="black"/>
</svg>
