<svg width="131" height="16" viewBox="0 0 131 16" fill="none" xmlns="http://www.w3.org/2000/svg">
<path d="M5.43344 0.4H8.97344L13.4534 15H10.8334L9.59344 10.96H4.79344L3.57344 15H0.933438L5.43344 0.4ZM7.19344 2.98L5.41344 8.9H8.97344L7.19344 2.98ZM15.4855 0.4H20.5855C22.4388 0.4 23.7255 0.886666 24.4455 1.86C25.0588 2.7 25.3655 3.68667 25.3655 4.82C25.3655 6.83333 24.5788 8.16667 23.0055 8.82C23.2988 9.14 23.5521 9.54 23.7655 10.02L25.9855 15H23.0855L21.0055 10.26C20.8188 9.86 20.6121 9.58667 20.3855 9.44C20.1721 9.29333 19.8455 9.22 19.4055 9.22H18.2055V15H15.4855V0.4ZM18.2055 7.12H20.2655C21.0655 7.12 21.6588 6.9 22.0455 6.46C22.4455 6.02 22.6455 5.47333 22.6455 4.82C22.6455 4.15333 22.4455 3.6 22.0455 3.16C21.6588 2.72 21.0655 2.5 20.2655 2.5H18.2055V7.12ZM33.7686 13.08C35.6886 13.08 36.6619 12.04 36.6886 9.96V9.28H34.4486V7.54H39.0286V15H37.6686L37.2086 13.54C36.3553 14.7 35.1553 15.28 33.6086 15.28C31.4219 15.28 29.9153 14.6 29.0886 13.24C28.6619 12.5467 28.3619 11.76 28.1886 10.88C28.0153 10 27.9286 8.93333 27.9286 7.68C27.9286 6.41333 28.0153 5.34 28.1886 4.46C28.3753 3.56667 28.6886 2.78667 29.1286 2.12C29.9953 0.786666 31.5686 0.12 33.8486 0.12C35.4886 0.12 36.6686 0.486666 37.3886 1.22C38.1086 1.95333 38.5486 3.03333 38.7086 4.46L36.5086 4.8C36.4286 4 36.1819 3.38667 35.7686 2.96C35.3553 2.53333 34.7153 2.32 33.8486 2.32C32.5953 2.32 31.7486 2.73333 31.3086 3.56C30.8686 4.38667 30.6486 5.75333 30.6486 7.66C30.6486 9.56667 30.8619 10.9467 31.2886 11.8C31.7286 12.6533 32.5553 13.08 33.7686 13.08ZM42.5948 0.4H50.8348V2.5H45.3148V6.54H50.3348V8.62H45.3148V12.9H51.2348V15H42.5948V0.4ZM62.4463 0.4H65.1663V15H62.2863L56.5063 5.08V15H53.7863V0.4H56.6663L62.4463 10.34V0.4ZM67.003 2.46V0.4H77.383V2.46H73.563V15H70.843V2.46H67.003Z" fill="#00BC78"/>
<path d="M84.4959 15H79.2159V0.4H83.8159C85.6159 0.4 86.8693 0.8 87.5759 1.6C88.2026 2.32 88.5159 3.16667 88.5159 4.14C88.5159 5.80667 87.8026 6.91333 86.3759 7.46C87.3359 7.72667 88.0359 8.19333 88.4759 8.86C88.9293 9.52667 89.1559 10.2733 89.1559 11.1C89.1559 12.1267 88.8426 13.0067 88.2159 13.74C87.8959 14.1267 87.4159 14.4333 86.7759 14.66C86.1359 14.8867 85.3759 15 84.4959 15ZM81.9359 12.9H84.3359C85.0293 12.9 85.5493 12.7067 85.8959 12.32C86.2559 11.9333 86.4359 11.4067 86.4359 10.74C86.4359 10.0733 86.2559 9.54667 85.8959 9.16C85.5493 8.77333 85.0293 8.58 84.3359 8.58H81.9359V12.9ZM81.9359 6.5H83.7759C84.4159 6.5 84.9093 6.32667 85.2559 5.98C85.6159 5.62 85.7959 5.13333 85.7959 4.52C85.7959 3.89333 85.6159 3.4 85.2559 3.04C84.9093 2.68 84.4159 2.5 83.7759 2.5H81.9359V6.5ZM94.4959 0.4H98.0359L102.516 15H99.8959L98.6559 10.96H93.8559L92.6359 15H89.9959L94.4959 0.4ZM96.2559 2.98L94.4759 8.9H98.0359L96.2559 2.98ZM113.208 0.4H115.928V15H113.048L107.268 5.08V15H104.548V0.4H107.428L113.208 10.34V0.4ZM122.405 8.62V15H119.685V0.4H122.405V6.56H123.425L127.125 0.4H129.925L125.525 7.6L130.305 15H127.405L123.305 8.62H122.405Z" fill="#005834"/>
</svg>
